<?xml version='1.0' encoding='utf-8'?>
<svg xmlns:xlink="http://www.w3.org/1999/xlink" xmlns="http://www.w3.org/2000/svg" id="svg8" version="1.1" viewBox="0 0 210 297" height="297mm" width="210mm"> <defs id="defs2"> <linearGradient id="linearGradient5238"> <stop style="stop-color:#fff6d5;stop-opacity:1" offset="0" id="stop5234"/> <stop style="stop-color:#ffff00;stop-opacity:1" offset="1" id="stop5236"/> </linearGradient> <linearGradient id="linearGradient5195"> <stop style="stop-color:#ffffff;stop-opacity:1;" offset="0" id="stop5191"/> </linearGradient> <linearGradient id="linearGradient5180"> <stop style="stop-color:#ffffff;stop-opacity:1;" offset="0" id="stop5176"/> </linearGradient> <linearGradient id="linearGradient4523"> <stop style="stop-color:#ff6600;stop-opacity:1;" offset="0" id="stop4519"/> <stop style="stop-color:#ffaf00;stop-opacity:0.98591548" offset="1" id="stop4521"/> </linearGradient> <linearGradient xlink:href="#linearGradient4523" id="linearGradient4525" x1="-238.58064" y1="606.27606" x2="-89.157387" y2="553.24304" gradientUnits="userSpaceOnUse" gradientTransform="matrix(0.26458333,0,0,0.26458333,0.33237424,-6.3655014)"/> <linearGradient xlink:href="#linearGradient5180" id="linearGradient5182" x1="-181.48047" y1="949.7334" x2="-181.42773" y2="758.66211" gradientUnits="userSpaceOnUse" gradientTransform="matrix(0.26458333,0,0,0.26458333,0.33237424,-6.3655014)"/> <linearGradient xlink:href="#linearGradient5195" id="linearGradient5197" x1="-250.84225" y1="599.30524" x2="-197.08829" y2="545.76715" gradientUnits="userSpaceOnUse" gradientTransform="matrix(0.26458333,0,0,0.26458333,0.33237424,-6.3655014)"/> <radialGradient xlink:href="#linearGradient5238" id="radialGradient5240" cx="-46.491089" cy="168.86607" fx="-46.491089" fy="168.86607" r="141.36308" gradientTransform="matrix(2.5771558,-0.02137748,0.0201191,2.4254531,69.92626,-241.70454)" gradientUnits="userSpaceOnUse"/> </defs> <metadata id="metadata5"> </metadata> <g id="layer1"> <path style="opacity:1;vector-effect:none;fill:url(#radialGradient5240);fill-opacity:1;fill-rule:nonzero;stroke:none;stroke-width:1.12596476;stroke-linecap:round;stroke-linejoin:round;stroke-miterlimit:4;stroke-dasharray:none;stroke-dashoffset:0;stroke-opacity:1;paint-order:markers fill stroke" d="M -187.85417,75.505943 H 94.871994 V 262.22619 H -187.85417 Z" id="rect5199"/> <path style="opacity:1;vector-effect:none;fill:#ff6600;fill-opacity:0.98591548;fill-rule:nonzero;stroke:none;stroke-width:3.69482207;stroke-linecap:round;stroke-linejoin:round;stroke-miterlimit:4;stroke-dasharray:none;stroke-dashoffset:0;stroke-opacity:1;paint-order:markers fill stroke" d="M -335.49609 426.01367 A 6.6974328 2.6789743 71.54012 0 0 -335.75977 426.06641 A 6.6974328 2.6789743 71.54012 0 0 -336.81055 427.60156 L -372.10547 440.29102 L -368.79297 449.5 L -334.26953 437.08789 A 6.6974328 2.6789743 71.54012 0 0 -331.51758 438.77148 A 6.6974328 2.6789743 71.54012 0 0 -330.45508 437.16016 A 6.6974328 2.6789743 79.453976 0 0 -327.91602 439.29297 A 6.6974328 2.6789743 79.453976 0 0 -326.42383 437.08398 A 6.6974328 2.6789743 84.312202 0 0 -323.97852 439.66406 A 6.6974328 2.6789743 84.312202 0 0 -323.00195 439.03711 A 2.6789743 6.6974328 0.66465947 0 0 -321.30469 440.61133 A 2.6789743 6.6974328 0.66465947 0 0 -320.13086 439.94922 A 2.6789743 6.6974328 8.0013385 0 0 -318.74414 441.46289 A 2.6789743 6.6974328 8.0013385 0 0 -317.5918 441.03906 A 2.6789743 6.6974328 20.723586 0 0 -316.76562 442.00977 A 2.6789743 6.6974328 20.723586 0 0 -314.26758 440.80469 A 2.6789743 6.6974328 28.765049 0 0 -313.57812 443.61328 A 2.6789743 6.6974328 28.765049 0 0 -312.25391 443.59375 A 2.6789743 6.6974328 42.200698 0 0 -311.89648 445.32812 A 2.6789743 6.6974328 42.200698 0 0 -309.77734 445.40234 A 2.6789743 6.6974328 51.769013 0 0 -309.69922 447.13281 A 2.6789743 6.6974328 51.769013 0 0 -308.0625 447.61914 A 2.6789743 6.6974328 60 0 0 -308.36328 449.58594 A 2.6789743 6.6974328 60 0 0 -305.76172 450.25 A 2.6789743 6.6974328 60 0 0 -306.48828 452.83398 A 2.6789743 6.6974328 60 0 0 -303.88672 453.49805 A 2.6789743 6.6974328 60 0 0 -304.61328 456.08203 A 2.6789743 6.6974328 60 0 0 -302.13867 456.76172 L -259.46094 530.67969 L -250.98633 525.78516 L -293.66406 451.86719 A 2.6789743 6.6974328 60 0 0 -293.01367 449.38477 A 2.6789743 6.6974328 60 0 0 -295.61523 448.71875 A 2.6789743 6.6974328 60 0 0 -294.88867 446.13672 A 2.6789743 6.6974328 60 0 0 -297.49023 445.47266 A 2.6789743 6.6974328 60 0 0 -296.76367 442.88867 A 2.6789743 6.6974328 60 0 0 -300.08594 442.35938 A 2.6789743 6.6974328 51.769013 0 0 -299.17773 438.84375 A 2.6789743 6.6974328 51.769013 0 0 -303.24805 439.09766 A 2.6789743 6.6974328 42.200698 0 0 -302.89844 435.4043 A 2.6789743 6.6974328 42.200698 0 0 -306.82617 436.30273 A 2.6789743 6.6974328 28.765049 0 0 -307.13281 431.87109 A 2.6789743 6.6974328 28.765049 0 0 -311.16211 434.14648 A 2.6789743 6.6974328 20.723586 0 0 -312.02539 429.48047 A 2.6789743 6.6974328 20.723586 0 0 -315.09961 431.39258 A 2.6789743 6.6974328 8.0013385 0 0 -316.87891 428.19727 A 2.6789743 6.6974328 8.0013385 0 0 -319.04297 429.91016 A 2.6789743 6.6974328 0.66465947 0 0 -321.14844 427.2168 A 2.6789743 6.6974328 0.66465947 0 0 -322.9043 428.80469 A 6.6974328 2.6789743 84.312202 0 0 -325.30664 426.33398 A 6.6974328 2.6789743 84.312202 0 0 -327.23633 429.58789 A 6.6974328 2.6789743 79.453976 0 0 -330.36719 426.125 A 6.6974328 2.6789743 79.453976 0 0 -332.00586 429.39453 A 6.6974328 2.6789743 71.54012 0 0 -335.49609 426.01367 z " transform="scale(0.26458333)" id="path4535"/> <path style="opacity:1;vector-effect:none;fill:#2a7fff;fill-opacity:1;fill-rule:nonzero;stroke:none;stroke-width:2.55030823;stroke-linecap:round;stroke-linejoin:round;stroke-miterlimit:4;stroke-dasharray:none;stroke-dashoffset:0;stroke-opacity:1;paint-order:markers fill stroke" d="m -51.290692,159.85129 c 3.445074,27.66642 1.492484,43.75893 0.0041,64.13384 -0.777458,8.69375 -13.938475,10.0986 -21.184708,9.27249 v 1.81434 h 24.611824 24.611826 v -1.81434 c -7.246232,0.82611 -20.323914,-0.29795 -21.184707,-9.27249 -1.488426,-20.37491 -3.441017,-36.46742 0.0041,-64.13384 h -3.431176 z" id="rect4497"/> <path style="opacity:1;vector-effect:none;fill:#2a7fff;fill-opacity:1;fill-rule:nonzero;stroke:none;stroke-width:6.61458254;stroke-linecap:round;stroke-linejoin:round;stroke-miterlimit:4;stroke-dasharray:none;stroke-dashoffset:0;stroke-opacity:1;paint-order:markers fill stroke" d="m -86.316081,121.49026 38.456565,46.77182 38.4565673,-46.77182 z m 2.672704,0.83406 h 71.567723 c -32.557837,46.22053 -39.504965,45.10193 -71.567723,0 z" id="rect4485"/> <path style="fill:url(#linearGradient4525);fill-opacity:1;fill-rule:evenodd;stroke:none;stroke-width:0.26458332px;stroke-linecap:butt;stroke-linejoin:miter;stroke-opacity:1" d="m -75.220118,133.88072 c 22.616022,29.95031 31.756522,30.55186 54.769265,0 z" id="path4510"/> <path style="opacity:0.42600002;fill:#ffffff;fill-rule:evenodd;stroke:none;stroke-width:0.26458332px;stroke-linecap:butt;stroke-linejoin:miter;stroke-opacity:1" d="m -33.818513,122.32432 -5.672521,28.92898 9.183936,-28.92898 z" id="path5136"/> <path style="opacity:0.42600002;fill:#ffffff;fill-rule:evenodd;stroke:none;stroke-width:0.26458332px;stroke-linecap:butt;stroke-linejoin:miter;stroke-opacity:1" d="m -28.591441,122.32432 -9.063014,26.75805 12.465907,-26.75805 z" id="path4527"/> <path transform="rotate(-135)" style="opacity:1;vector-effect:none;fill:#ff7f2a;fill-opacity:0.98591548;fill-rule:nonzero;stroke:none;stroke-width:0.72857994;stroke-linecap:round;stroke-linejoin:round;stroke-miterlimit:4;stroke-dasharray:none;stroke-dashoffset:0;stroke-opacity:1;paint-order:markers fill stroke" d="m -60.074608,-91.895874 a 16.38546,16.38546 0 0 1 -16.38546,16.38546 16.38546,16.38546 0 0 1 -16.38546,-16.38546 16.38546,16.38546 0 0 1 16.38546,-16.385456 16.38546,16.38546 0 0 1 16.38546,16.385456 z" id="circle5114"/> <path transform="rotate(-135)" style="opacity:1;vector-effect:none;fill:#ffb380;fill-opacity:0.98591548;fill-rule:nonzero;stroke:none;stroke-width:0.69779485;stroke-linecap:round;stroke-linejoin:round;stroke-miterlimit:4;stroke-dasharray:none;stroke-dashoffset:0;stroke-opacity:1;paint-order:markers fill stroke" d="m -60.766952,-91.895874 a 15.693116,15.693116 0 0 1 -15.693116,15.693116 15.693116,15.693116 0 0 1 -15.693116,-15.693116 15.693116,15.693116 0 0 1 15.693116,-15.693116 15.693116,15.693116 0 0 1 15.693116,15.693116 z" id="path5110"/> <path style="opacity:1;vector-effect:none;fill:#ff7f2a;fill-opacity:0.98591548;fill-rule:nonzero;stroke:none;stroke-width:0.81409401;stroke-linecap:round;stroke-linejoin:round;stroke-miterlimit:4;stroke-dasharray:none;stroke-dashoffset:0;stroke-opacity:1;paint-order:markers fill stroke" d="m -20.734307,129.44108 a 14.308428,14.308428 0 0 0 5.732069,3.28742 l 3.301383,-12.32087 z m -0.571668,-0.58015 9.029287,-9.02929 -12.322651,3.30197 a 14.308428,14.308428 0 0 0 3.293364,5.72732 z m -3.506945,-6.51206 12.326815,-3.30317 -12.317892,-3.30079 a 14.308428,14.308428 0 0 0 -0.0089,6.60396 z m 10.595429,10.59261 a 14.308428,14.308428 0 0 0 6.6081322,0.0119 l -3.3055472,-12.33634 z m -10.391429,-17.986 12.333052,3.30466 -9.02899,-9.02899 a 14.308428,14.308428 0 0 0 -3.304062,5.72433 z m 17.7826748,17.77702 a 14.308428,14.308428 0 0 0 5.7353431,-3.28771 l -9.0382179,-9.03822 z m 6.30173568,-3.87256 A 14.308428,14.308428 0 0 0 2.7795601,123.13621 L -9.5529055,119.83155 Z M -11.700686,117.68377 -15.00327,105.35874 a 14.308428,14.308428 0 0 0 -5.735032,3.28741 z m 2.3572043,1.36185 12.318479,3.30079 a 14.308428,14.308428 0 0 0 0.00892,-6.60397 z m -1.5712693,-1.57127 3.3025779,-12.32503 a 14.308428,14.308428 0 0 0 -6.6084359,-0.0116 z m 1.3618385,0.78533 12.3232519,-3.30198 a 14.308428,14.308428 0 0 0 -3.29366098,-5.72761 z m -0.5759105,-0.57591 9.0337561,-9.03375 a 14.308428,14.308428 0 0 0 -5.7320692,-3.28741 z" id="path4714"/> <path style="opacity:1;vector-effect:none;fill:#ffe6d5;fill-opacity:0.98591548;fill-rule:nonzero;stroke:none;stroke-width:0.14841413;stroke-linecap:round;stroke-linejoin:round;stroke-miterlimit:4;stroke-dasharray:none;stroke-dashoffset:0;stroke-opacity:1;paint-order:markers fill stroke" d="m -10.287193,111.51379 c 2.8843235,-2.59731 -1.311068,-3.0018 0,0 z" id="rect5116"/> <path id="path5119" d="m -7.8880438,125.04738 c 1.762294,3.45828 3.2388531,-0.48948 0,0 z" style="opacity:1;vector-effect:none;fill:#ffe6d5;fill-opacity:0.98591548;fill-rule:nonzero;stroke:none;stroke-width:0.14841413;stroke-linecap:round;stroke-linejoin:round;stroke-miterlimit:4;stroke-dasharray:none;stroke-dashoffset:0;stroke-opacity:1;paint-order:markers fill stroke"/> <path style="opacity:1;vector-effect:none;fill:#ffe6d5;fill-opacity:0.98591548;fill-rule:nonzero;stroke:none;stroke-width:0.10990316;stroke-linecap:round;stroke-linejoin:round;stroke-miterlimit:4;stroke-dasharray:none;stroke-dashoffset:0;stroke-opacity:1;paint-order:markers fill stroke" d="m -19.609498,114.37724 c 2.811414,-0.59773 0.270666,-2.41051 0,0 z" id="path5121"/> <path id="path5123" d="m 1.1729145,118.5417 c 2.1358867,-1.92336 -0.9708718,-2.22289 0,0 z" style="opacity:1;vector-effect:none;fill:#ffe6d5;fill-opacity:0.98591548;fill-rule:nonzero;stroke:none;stroke-width:0.10990316;stroke-linecap:round;stroke-linejoin:round;stroke-miterlimit:4;stroke-dasharray:none;stroke-dashoffset:0;stroke-opacity:1;paint-order:markers fill stroke"/> <path style="opacity:1;vector-effect:none;fill:#2a7fff;fill-opacity:1;fill-rule:nonzero;stroke:none;stroke-width:6.61458254;stroke-linecap:round;stroke-linejoin:round;stroke-miterlimit:4;stroke-dasharray:none;stroke-dashoffset:0;stroke-opacity:1;paint-order:markers fill stroke" d="m -27.998195,121.49026 v 0.83406 h 14.380517 l 0.834057,-0.83406 z" id="path5153"/> <path style="opacity:0.406;vector-effect:none;fill:url(#linearGradient5182);fill-opacity:1;fill-rule:nonzero;stroke:none;stroke-width:1.41067362;stroke-linecap:round;stroke-linejoin:round;stroke-miterlimit:4;stroke-dasharray:none;stroke-dashoffset:0;stroke-opacity:1;paint-order:markers fill stroke" d="m -47.670379,194.36385 a 8.8824405,18.804315 0 0 0 -1.77147,0.39791 c -0.247142,9.98515 -1.103368,19.0732 -1.844847,29.22353 -0.14928,1.6693 -0.756441,3.06879 -1.689303,4.23644 a 8.8824405,18.804315 0 0 0 5.30562,3.75067 8.8824405,18.804315 0 0 0 5.112348,-3.45508 c -1.02507,-1.22199 -1.700125,-2.71606 -1.874303,-4.53203 -0.74504,-10.19875 -1.606005,-19.32472 -1.848466,-29.36616 a 8.8824405,18.804315 0 0 0 -1.389579,-0.25528 z" id="path5171"/> <path style="opacity:0.52899996;fill:url(#linearGradient5197);fill-opacity:1;fill-rule:evenodd;stroke:none;stroke-width:0.26458332px;stroke-linecap:butt;stroke-linejoin:miter;stroke-opacity:1" d="m -71.114428,133.88072 c 18.416376,22.99326 27.817371,23.39657 46.562017,0 z" id="path5184"/> </g> </svg>